<?xml version="1.0" encoding="UTF-8"?>
<svg xmlns="http://www.w3.org/2000/svg" xmlns:xlink="http://www.w3.org/1999/xlink" width="586pt" height="257pt" viewBox="0 0 586 257">
<rect x="-58.6" y="-25.7" width="703.2" height="308.4" fill="rgb(100%, 100%, 100%)" fill-opacity="1"/>
<rect x="-58.6" y="-25.7" width="703.2" height="308.4" fill="rgb(100%, 100%, 100%)" fill-opacity="1"/>
<path fill-rule="nonzero" fill="rgb(12.159729%, 13.729858%, 16.079712%)" fill-opacity="1" d="M 24.152344 142.238281 L 25.089844 142.238281 L 29.277344 128.617188 L 28.355469 128.617188 Z M 32.527344 139.914062 C 33.464844 139.914062 34.316406 139.421875 35.046875 138.820312 L 35.085938 138.820312 L 35.199219 139.730469 L 36.25 139.730469 L 36.25 135.054688 C 36.25 133.179688 35.464844 131.933594 33.617188 131.933594 C 32.398438 131.933594 31.324219 132.476562 30.621094 132.925781 L 31.125 133.808594 C 31.726562 133.40625 32.527344 132.996094 33.410156 132.996094 C 34.652344 132.996094 34.976562 133.933594 34.976562 134.914062 C 31.742188 135.277344 30.300781 136.105469 30.300781 137.753906 C 30.300781 139.128906 31.25 139.914062 32.527344 139.914062 Z M 32.890625 138.890625 C 32.132812 138.890625 31.546875 138.542969 31.546875 137.671875 C 31.546875 136.691406 32.414062 136.0625 34.976562 135.757812 L 34.976562 137.882812 C 34.234375 138.542969 33.628906 138.890625 32.890625 138.890625 Z M 38.671875 142.9375 L 39.949219 142.9375 L 39.949219 140.359375 L 39.917969 139.03125 C 40.605469 139.589844 41.332031 139.914062 42.019531 139.914062 C 43.769531 139.914062 45.320312 138.414062 45.320312 135.8125 C 45.320312 133.472656 44.257812 131.933594 42.300781 131.933594 C 41.417969 131.933594 40.5625 132.4375 39.875 132.996094 L 39.835938 132.996094 L 39.722656 132.128906 L 38.671875 132.128906 Z M 41.808594 138.847656 C 41.304688 138.847656 40.632812 138.640625 39.949219 138.050781 L 39.949219 134.0625 C 40.6875 133.375 41.34375 133.011719 41.992188 133.011719 C 43.429688 133.011719 43.992188 134.144531 43.992188 135.824219 C 43.992188 137.714844 43.066406 138.847656 41.808594 138.847656 Z M 47.351562 139.730469 L 48.628906 139.730469 L 48.628906 132.128906 L 47.351562 132.128906 Z M 47.996094 130.5625 C 48.5 130.5625 48.847656 130.226562 48.847656 129.707031 C 48.847656 129.21875 48.5 128.882812 47.996094 128.882812 C 47.492188 128.882812 47.140625 129.21875 47.140625 129.707031 C 47.140625 130.226562 47.492188 130.5625 47.996094 130.5625 Z M 47.996094 130.5625 "/>
<path fill-rule="nonzero" fill="rgb(12.159729%, 13.729858%, 16.079712%)" fill-opacity="1" d="M 228.066406 100.507812 L 229.003906 100.507812 L 233.191406 86.886719 L 232.269531 86.886719 Z M 236.441406 98.183594 C 237.378906 98.183594 238.230469 97.695312 238.960938 97.09375 L 239 97.09375 L 239.113281 98.003906 L 240.164062 98.003906 L 240.164062 93.328125 C 240.164062 91.449219 239.378906 90.207031 237.53125 90.207031 C 236.3125 90.207031 235.238281 90.75 234.535156 91.199219 L 235.039062 92.078125 C 235.640625 91.675781 236.441406 91.269531 237.324219 91.269531 C 238.566406 91.269531 238.890625 92.207031 238.890625 93.1875 C 235.65625 93.550781 234.214844 94.375 234.214844 96.027344 C 234.214844 97.402344 235.164062 98.183594 236.441406 98.183594 Z M 236.804688 97.164062 C 236.046875 97.164062 235.460938 96.8125 235.460938 95.945312 C 235.460938 94.964844 236.328125 94.335938 238.890625 94.027344 L 238.890625 96.152344 C 238.148438 96.8125 237.542969 97.164062 236.804688 97.164062 Z M 242.585938 101.210938 L 243.863281 101.210938 L 243.863281 98.632812 L 243.832031 97.300781 C 244.519531 97.863281 245.246094 98.183594 245.933594 98.183594 C 247.683594 98.183594 249.234375 96.6875 249.234375 94.082031 C 249.234375 91.746094 248.171875 90.207031 246.214844 90.207031 C 245.332031 90.207031 244.476562 90.710938 243.789062 91.269531 L 243.75 91.269531 L 243.636719 90.402344 L 242.585938 90.402344 Z M 245.722656 97.121094 C 245.21875 97.121094 244.546875 96.914062 243.863281 96.320312 L 243.863281 92.332031 C 244.601562 91.644531 245.257812 91.285156 245.90625 91.285156 C 247.34375 91.285156 247.90625 92.417969 247.90625 94.097656 C 247.90625 95.988281 246.980469 97.121094 245.722656 97.121094 Z M 251.265625 98.003906 L 252.542969 98.003906 L 252.542969 90.402344 L 251.265625 90.402344 Z M 251.910156 88.832031 C 252.414062 88.832031 252.761719 88.496094 252.761719 87.976562 C 252.761719 87.488281 252.414062 87.15625 251.910156 87.15625 C 251.40625 87.15625 251.054688 87.488281 251.054688 87.976562 C 251.054688 88.496094 251.40625 88.832031 251.910156 88.832031 Z M 253.980469 100.507812 L 254.917969 100.507812 L 259.105469 86.886719 L 258.183594 86.886719 Z M 262.242188 98.003906 L 263.726562 98.003906 L 266.429688 90.402344 L 265.167969 90.402344 L 263.726562 94.730469 C 263.503906 95.46875 263.265625 96.253906 263.023438 96.96875 L 262.96875 96.96875 C 262.730469 96.253906 262.496094 95.46875 262.253906 94.730469 L 260.828125 90.402344 L 259.496094 90.402344 Z M 267.839844 98.003906 L 273.46875 98.003906 L 273.46875 96.941406 L 271.414062 96.941406 L 271.414062 87.730469 L 270.429688 87.730469 C 269.871094 88.0625 269.214844 88.300781 268.304688 88.46875 L 268.304688 89.28125 L 270.125 89.28125 L 270.125 96.941406 L 267.839844 96.941406 Z M 267.839844 98.003906 "/>
<path fill="none" stroke-width="2" stroke-linecap="round" stroke-linejoin="miter" stroke="rgb(73.329163%, 74.899292%, 76.858521%)" stroke-opacity="1" stroke-miterlimit="4" d="M 3.894593 40.815537 L 174.10553 0.913193 " transform="matrix(1, 0, 0, 1, 49.914001, 91.899307)"/>
<path fill-rule="nonzero" fill="rgb(12.159729%, 13.729858%, 16.079712%)" fill-opacity="1" d="M 373.175781 42.746094 L 374.113281 42.746094 L 378.296875 29.125 L 377.375 29.125 Z M 381.546875 40.421875 C 382.484375 40.421875 383.339844 39.933594 384.066406 39.332031 L 384.109375 39.332031 L 384.222656 40.238281 L 385.269531 40.238281 L 385.269531 35.5625 C 385.269531 33.6875 384.488281 32.445312 382.636719 32.445312 C 381.421875 32.445312 380.34375 32.988281 379.644531 33.433594 L 380.148438 34.316406 C 380.75 33.914062 381.546875 33.507812 382.429688 33.507812 C 383.675781 33.507812 384 34.441406 384 35.425781 C 380.761719 35.785156 379.324219 36.613281 379.324219 38.265625 C 379.324219 39.636719 380.273438 40.421875 381.546875 40.421875 Z M 381.910156 39.398438 C 381.15625 39.398438 380.566406 39.050781 380.566406 38.183594 C 380.566406 37.203125 381.433594 36.574219 384 36.265625 L 384 38.390625 C 383.257812 39.050781 382.652344 39.398438 381.910156 39.398438 Z M 387.695312 43.445312 L 388.96875 43.445312 L 388.96875 40.867188 L 388.9375 39.539062 C 389.625 40.101562 390.351562 40.421875 391.039062 40.421875 C 392.789062 40.421875 394.34375 38.925781 394.34375 36.320312 C 394.34375 33.980469 393.277344 32.445312 391.320312 32.445312 C 390.4375 32.445312 389.585938 32.945312 388.898438 33.507812 L 388.855469 33.507812 L 388.742188 32.636719 L 387.695312 32.636719 Z M 390.828125 39.359375 C 390.324219 39.359375 389.652344 39.148438 388.96875 38.558594 L 388.96875 34.570312 C 389.710938 33.882812 390.367188 33.519531 391.011719 33.519531 C 392.453125 33.519531 393.011719 34.65625 393.011719 36.332031 C 393.011719 38.222656 392.089844 39.359375 390.828125 39.359375 Z M 396.375 40.238281 L 397.648438 40.238281 L 397.648438 32.636719 L 396.375 32.636719 Z M 397.015625 31.070312 C 397.523438 31.070312 397.871094 30.734375 397.871094 30.214844 C 397.871094 29.726562 397.523438 29.390625 397.015625 29.390625 C 396.515625 29.390625 396.160156 29.726562 396.160156 30.214844 C 396.160156 30.734375 396.515625 31.070312 397.015625 31.070312 Z M 399.089844 42.746094 L 400.027344 42.746094 L 404.210938 29.125 L 403.289062 29.125 Z M 407.347656 40.238281 L 408.832031 40.238281 L 411.535156 32.636719 L 410.273438 32.636719 L 408.832031 36.964844 C 408.609375 37.707031 408.371094 38.488281 408.132812 39.203125 L 408.078125 39.203125 C 407.839844 38.488281 407.601562 37.707031 407.363281 36.964844 L 405.933594 32.636719 L 404.605469 32.636719 Z M 412.949219 40.238281 L 418.578125 40.238281 L 418.578125 39.175781 L 416.519531 39.175781 L 416.519531 29.964844 L 415.539062 29.964844 C 414.976562 30.300781 414.320312 30.535156 413.414062 30.707031 L 413.414062 31.515625 L 415.230469 31.515625 L 415.230469 39.175781 L 412.949219 39.175781 Z M 419.640625 42.746094 L 420.578125 42.746094 L 424.765625 29.125 L 423.84375 29.125 Z M 426.265625 40.238281 L 427.539062 40.238281 L 427.539062 34.722656 C 428.308594 33.953125 428.835938 33.5625 429.625 33.5625 C 430.632812 33.5625 431.066406 34.164062 431.066406 35.589844 L 431.066406 40.238281 L 432.335938 40.238281 L 432.335938 35.425781 C 432.335938 33.480469 431.613281 32.445312 430.015625 32.445312 C 428.976562 32.445312 428.195312 33.015625 427.46875 33.730469 L 427.425781 33.730469 L 427.3125 32.636719 L 426.265625 32.636719 Z M 437.769531 40.421875 C 439.632812 40.421875 441.296875 38.964844 441.296875 36.445312 C 441.296875 33.914062 439.632812 32.445312 437.769531 32.445312 C 435.910156 32.445312 434.242188 33.914062 434.242188 36.445312 C 434.242188 38.964844 435.910156 40.421875 437.769531 40.421875 Z M 437.769531 39.359375 C 436.457031 39.359375 435.574219 38.195312 435.574219 36.445312 C 435.574219 34.695312 436.457031 33.507812 437.769531 33.507812 C 439.085938 33.507812 439.984375 34.695312 439.984375 36.445312 C 439.984375 38.195312 439.085938 39.359375 437.769531 39.359375 Z M 445.894531 40.421875 C 446.800781 40.421875 447.597656 39.933594 448.199219 39.34375 L 448.246094 39.34375 L 448.355469 40.238281 L 449.394531 40.238281 L 449.394531 29.097656 L 448.132812 29.097656 L 448.132812 32.023438 L 448.1875 33.339844 C 447.515625 32.777344 446.941406 32.445312 446.046875 32.445312 C 444.308594 32.445312 442.753906 33.980469 442.753906 36.445312 C 442.753906 38.980469 443.988281 40.421875 445.894531 40.421875 Z M 446.171875 39.359375 C 444.828125 39.359375 444.070312 38.265625 444.070312 36.433594 C 444.070312 34.695312 445.039062 33.519531 446.269531 33.519531 C 446.902344 33.519531 447.472656 33.742188 448.132812 34.316406 L 448.132812 38.308594 C 447.488281 39.007812 446.871094 39.359375 446.171875 39.359375 Z M 455.046875 40.421875 C 456.082031 40.421875 456.898438 40.074219 457.566406 39.636719 L 457.105469 38.796875 C 456.546875 39.175781 455.945312 39.398438 455.203125 39.398438 C 453.757812 39.398438 452.765625 38.363281 452.683594 36.738281 L 457.804688 36.738281 C 457.832031 36.558594 457.859375 36.292969 457.859375 36.011719 C 457.859375 33.839844 456.769531 32.445312 454.835938 32.445312 C 453.074219 32.445312 451.40625 33.980469 451.40625 36.445312 C 451.40625 38.953125 453.03125 40.421875 455.046875 40.421875 Z M 452.667969 35.816406 C 452.824219 34.332031 453.773438 33.464844 454.851562 33.464844 C 456.042969 33.464844 456.738281 34.289062 456.738281 35.816406 Z M 461.722656 40.421875 C 463.519531 40.421875 464.496094 39.398438 464.496094 38.167969 C 464.496094 36.726562 463.277344 36.277344 462.175781 35.859375 C 461.320312 35.535156 460.535156 35.269531 460.535156 34.542969 C 460.535156 33.953125 460.980469 33.449219 461.949219 33.449219 C 462.621094 33.449219 463.152344 33.730469 463.671875 34.121094 L 464.289062 33.292969 C 463.699219 32.832031 462.871094 32.445312 461.9375 32.445312 C 460.285156 32.445312 459.304688 33.394531 459.304688 34.597656 C 459.304688 35.886719 460.464844 36.40625 461.527344 36.792969 C 462.371094 37.121094 463.265625 37.453125 463.265625 38.238281 C 463.265625 38.898438 462.777344 39.425781 461.769531 39.425781 C 460.859375 39.425781 460.171875 39.0625 459.511719 38.53125 L 458.882812 39.371094 C 459.613281 39.972656 460.648438 40.421875 461.722656 40.421875 Z M 461.722656 40.421875 "/>
<path fill="none" stroke-width="2" stroke-linecap="round" stroke-linejoin="miter" stroke="rgb(73.329163%, 74.899292%, 76.858521%)" stroke-opacity="1" stroke-miterlimit="4" d="M 3.452031 55.742904 L 95.190313 2.020248 " transform="matrix(1, 0, 0, 1, 274.38, 34.136002)"/>
<path fill-rule="nonzero" fill="rgb(12.159729%, 13.729858%, 16.079712%)" fill-opacity="1" d="M 372.953125 70.078125 L 373.890625 70.078125 L 378.078125 56.457031 L 377.152344 56.457031 Z M 381.324219 67.753906 C 382.261719 67.753906 383.117188 67.265625 383.84375 66.664062 L 383.886719 66.664062 L 384 67.574219 L 385.046875 67.574219 L 385.046875 62.898438 C 385.046875 61.019531 384.265625 59.777344 382.417969 59.777344 C 381.199219 59.777344 380.121094 60.320312 379.421875 60.769531 L 379.925781 61.648438 C 380.527344 61.246094 381.324219 60.839844 382.207031 60.839844 C 383.453125 60.839844 383.777344 61.777344 383.777344 62.757812 C 380.539062 63.121094 379.101562 63.945312 379.101562 65.597656 C 379.101562 66.972656 380.050781 67.753906 381.324219 67.753906 Z M 381.6875 66.734375 C 380.933594 66.734375 380.34375 66.382812 380.34375 65.515625 C 380.34375 64.535156 381.214844 63.90625 383.777344 63.597656 L 383.777344 65.722656 C 383.035156 66.382812 382.429688 66.734375 381.6875 66.734375 Z M 387.472656 70.78125 L 388.746094 70.78125 L 388.746094 68.203125 L 388.714844 66.871094 C 389.402344 67.433594 390.132812 67.753906 390.816406 67.753906 C 392.566406 67.753906 394.121094 66.257812 394.121094 63.652344 C 394.121094 61.316406 393.058594 59.777344 391.097656 59.777344 C 390.214844 59.777344 389.363281 60.28125 388.675781 60.839844 L 388.632812 60.839844 L 388.519531 59.972656 L 387.472656 59.972656 Z M 390.605469 66.691406 C 390.105469 66.691406 389.429688 66.484375 388.746094 65.890625 L 388.746094 61.902344 C 389.488281 61.214844 390.144531 60.855469 390.789062 60.855469 C 392.230469 60.855469 392.789062 61.988281 392.789062 63.667969 C 392.789062 65.558594 391.867188 66.691406 390.605469 66.691406 Z M 396.152344 67.574219 L 397.425781 67.574219 L 397.425781 59.972656 L 396.152344 59.972656 Z M 396.792969 58.402344 C 397.300781 58.402344 397.648438 58.066406 397.648438 57.546875 C 397.648438 57.058594 397.300781 56.726562 396.792969 56.726562 C 396.292969 56.726562 395.941406 57.058594 395.941406 57.546875 C 395.941406 58.066406 396.292969 58.402344 396.792969 58.402344 Z M 398.867188 70.078125 L 399.804688 70.078125 L 403.992188 56.457031 L 403.066406 56.457031 Z M 407.128906 67.574219 L 408.609375 67.574219 L 411.3125 59.972656 L 410.054688 59.972656 L 408.609375 64.300781 C 408.386719 65.039062 408.148438 65.824219 407.910156 66.539062 L 407.855469 66.539062 C 407.617188 65.824219 407.378906 65.039062 407.140625 64.300781 L 405.710938 59.972656 L 404.382812 59.972656 Z M 412.726562 67.574219 L 418.355469 67.574219 L 418.355469 66.511719 L 416.296875 66.511719 L 416.296875 57.300781 L 415.316406 57.300781 C 414.757812 57.632812 414.101562 57.871094 413.191406 58.039062 L 413.191406 58.851562 L 415.007812 58.851562 L 415.007812 66.511719 L 412.726562 66.511719 Z M 419.417969 70.078125 L 420.355469 70.078125 L 424.542969 56.457031 L 423.621094 56.457031 Z M 426.042969 70.78125 L 427.316406 70.78125 L 427.316406 68.203125 L 427.285156 66.871094 C 427.972656 67.433594 428.699219 67.753906 429.386719 67.753906 C 431.136719 67.753906 432.691406 66.257812 432.691406 63.652344 C 432.691406 61.316406 431.625 59.777344 429.667969 59.777344 C 428.785156 59.777344 427.933594 60.28125 427.246094 60.839844 L 427.203125 60.839844 L 427.089844 59.972656 L 426.042969 59.972656 Z M 429.175781 66.691406 C 428.671875 66.691406 428 66.484375 427.316406 65.890625 L 427.316406 61.902344 C 428.058594 61.214844 428.714844 60.855469 429.359375 60.855469 C 430.800781 60.855469 431.359375 61.988281 431.359375 63.667969 C 431.359375 65.558594 430.4375 66.691406 429.175781 66.691406 Z M 437.675781 67.753906 C 439.539062 67.753906 441.203125 66.296875 441.203125 63.78125 C 441.203125 61.246094 439.539062 59.777344 437.675781 59.777344 C 435.8125 59.777344 434.148438 61.246094 434.148438 63.78125 C 434.148438 66.296875 435.8125 67.753906 437.675781 67.753906 Z M 437.675781 66.691406 C 436.359375 66.691406 435.476562 65.53125 435.476562 63.78125 C 435.476562 62.03125 436.359375 60.839844 437.675781 60.839844 C 438.992188 60.839844 439.886719 62.03125 439.886719 63.78125 C 439.886719 65.53125 438.992188 66.691406 437.675781 66.691406 Z M 445.796875 67.753906 C 446.707031 67.753906 447.503906 67.265625 448.105469 66.679688 L 448.148438 66.679688 L 448.257812 67.574219 L 449.296875 67.574219 L 449.296875 56.429688 L 448.035156 56.429688 L 448.035156 59.355469 L 448.089844 60.671875 C 447.421875 60.113281 446.847656 59.777344 445.949219 59.777344 C 444.214844 59.777344 442.660156 61.316406 442.660156 63.78125 C 442.660156 66.3125 443.894531 67.753906 445.796875 67.753906 Z M 446.078125 66.691406 C 444.730469 66.691406 443.976562 65.597656 443.976562 63.765625 C 443.976562 62.03125 444.941406 60.855469 446.171875 60.855469 C 446.804688 60.855469 447.375 61.074219 448.035156 61.648438 L 448.035156 65.640625 C 447.394531 66.34375 446.773438 66.691406 446.078125 66.691406 Z M 453.871094 67.753906 C 455.667969 67.753906 456.644531 66.734375 456.644531 65.503906 C 456.644531 64.058594 455.425781 63.613281 454.324219 63.191406 C 453.46875 62.871094 452.683594 62.605469 452.683594 61.875 C 452.683594 61.289062 453.128906 60.78125 454.097656 60.78125 C 454.769531 60.78125 455.300781 61.0625 455.820312 61.457031 L 456.433594 60.628906 C 455.847656 60.167969 455.019531 59.777344 454.082031 59.777344 C 452.433594 59.777344 451.453125 60.726562 451.453125 61.929688 C 451.453125 63.21875 452.613281 63.738281 453.675781 64.128906 C 454.519531 64.453125 455.414062 64.789062 455.414062 65.570312 C 455.414062 66.230469 454.925781 66.761719 453.917969 66.761719 C 453.007812 66.761719 452.320312 66.398438 451.660156 65.863281 L 451.03125 66.707031 C 451.757812 67.308594 452.796875 67.753906 453.871094 67.753906 Z M 453.871094 67.753906 "/>
<path fill="none" stroke-width="2" stroke-linecap="round" stroke-linejoin="miter" stroke="rgb(73.329163%, 74.899292%, 76.858521%)" stroke-opacity="1" stroke-miterlimit="4" d="M 3.823125 29.249374 L 94.596563 1.182968 " transform="matrix(1, 0, 0, 1, 274.38, 61.469376)"/>
<path fill-rule="nonzero" fill="rgb(12.159729%, 13.729858%, 16.079712%)" fill-opacity="1" d="M 24.152344 175.449219 L 25.089844 175.449219 L 29.277344 161.828125 L 28.355469 161.828125 Z M 32.527344 173.125 C 33.464844 173.125 34.316406 172.632812 35.046875 172.03125 L 35.085938 172.03125 L 35.199219 172.941406 L 36.25 172.941406 L 36.25 168.265625 C 36.25 166.390625 35.464844 165.144531 33.617188 165.144531 C 32.398438 165.144531 31.324219 165.6875 30.621094 166.136719 L 31.125 167.019531 C 31.726562 166.617188 32.527344 166.207031 33.410156 166.207031 C 34.652344 166.207031 34.976562 167.144531 34.976562 168.125 C 31.742188 168.488281 30.300781 169.316406 30.300781 170.964844 C 30.300781 172.339844 31.25 173.125 32.527344 173.125 Z M 32.890625 172.101562 C 32.132812 172.101562 31.546875 171.753906 31.546875 170.882812 C 31.546875 169.902344 32.414062 169.273438 34.976562 168.96875 L 34.976562 171.09375 C 34.234375 171.753906 33.628906 172.101562 32.890625 172.101562 Z M 38.671875 176.148438 L 39.949219 176.148438 L 39.949219 173.570312 L 39.917969 172.242188 C 40.605469 172.800781 41.332031 173.125 42.019531 173.125 C 43.769531 173.125 45.320312 171.625 45.320312 169.023438 C 45.320312 166.683594 44.257812 165.144531 42.300781 165.144531 C 41.417969 165.144531 40.5625 165.648438 39.875 166.207031 L 39.835938 166.207031 L 39.722656 165.339844 L 38.671875 165.339844 Z M 41.808594 172.058594 C 41.304688 172.058594 40.632812 171.851562 39.949219 171.261719 L 39.949219 167.273438 C 40.6875 166.585938 41.34375 166.222656 41.992188 166.222656 C 43.429688 166.222656 43.992188 167.355469 43.992188 169.035156 C 43.992188 170.925781 43.066406 172.058594 41.808594 172.058594 Z M 47.351562 172.941406 L 48.628906 172.941406 L 48.628906 165.339844 L 47.351562 165.339844 Z M 47.996094 163.773438 C 48.5 163.773438 48.851562 163.4375 48.851562 162.917969 C 48.851562 162.429688 48.5 162.09375 47.996094 162.09375 C 47.492188 162.09375 47.140625 162.429688 47.140625 162.917969 C 47.140625 163.4375 47.492188 163.773438 47.996094 163.773438 Z M 53.1875 173.125 C 54.984375 173.125 55.960938 172.101562 55.960938 170.871094 C 55.960938 169.429688 54.742188 168.980469 53.640625 168.558594 C 52.785156 168.238281 52 167.972656 52 167.246094 C 52 166.65625 52.445312 166.152344 53.414062 166.152344 C 54.085938 166.152344 54.617188 166.429688 55.136719 166.824219 L 55.75 165.996094 C 55.164062 165.535156 54.335938 165.144531 53.398438 165.144531 C 51.75 165.144531 50.769531 166.097656 50.769531 167.300781 C 50.769531 168.585938 51.929688 169.105469 52.992188 169.496094 C 53.835938 169.820312 54.730469 170.15625 54.730469 170.9375 C 54.730469 171.597656 54.242188 172.128906 53.234375 172.128906 C 52.324219 172.128906 51.636719 171.765625 50.976562 171.234375 L 50.347656 172.074219 C 51.074219 172.675781 52.113281 173.125 53.1875 173.125 Z M 53.1875 173.125 "/>
<path fill-rule="nonzero" fill="rgb(12.159729%, 13.729858%, 16.079712%)" fill-opacity="1" d="M 113.953125 162.507812 L 114.890625 162.507812 L 119.078125 148.886719 L 118.152344 148.886719 Z M 122.324219 160.183594 C 123.261719 160.183594 124.117188 159.695312 124.84375 159.09375 L 124.886719 159.09375 L 125 160.003906 L 126.046875 160.003906 L 126.046875 155.328125 C 126.046875 153.449219 125.265625 152.207031 123.417969 152.207031 C 122.199219 152.207031 121.121094 152.75 120.421875 153.199219 L 120.925781 154.078125 C 121.527344 153.675781 122.324219 153.269531 123.207031 153.269531 C 124.453125 153.269531 124.777344 154.207031 124.777344 155.1875 C 121.539062 155.550781 120.101562 156.375 120.101562 158.027344 C 120.101562 159.402344 121.050781 160.183594 122.324219 160.183594 Z M 122.6875 159.164062 C 121.933594 159.164062 121.34375 158.8125 121.34375 157.945312 C 121.34375 156.964844 122.214844 156.335938 124.777344 156.027344 L 124.777344 158.152344 C 124.035156 158.8125 123.429688 159.164062 122.6875 159.164062 Z M 128.472656 163.210938 L 129.746094 163.210938 L 129.746094 160.632812 L 129.714844 159.300781 C 130.402344 159.863281 131.132812 160.183594 131.816406 160.183594 C 133.566406 160.183594 135.121094 158.6875 135.121094 156.082031 C 135.121094 153.746094 134.058594 152.207031 132.097656 152.207031 C 131.214844 152.207031 130.363281 152.710938 129.675781 153.269531 L 129.632812 153.269531 L 129.519531 152.402344 L 128.472656 152.402344 Z M 131.605469 159.121094 C 131.105469 159.121094 130.429688 158.914062 129.746094 158.320312 L 129.746094 154.332031 C 130.488281 153.644531 131.144531 153.285156 131.789062 153.285156 C 133.230469 153.285156 133.789062 154.417969 133.789062 156.097656 C 133.789062 157.988281 132.867188 159.121094 131.605469 159.121094 Z M 137.152344 160.003906 L 138.425781 160.003906 L 138.425781 152.402344 L 137.152344 152.402344 Z M 137.792969 150.832031 C 138.300781 150.832031 138.648438 150.496094 138.648438 149.976562 C 138.648438 149.488281 138.300781 149.15625 137.792969 149.15625 C 137.292969 149.15625 136.941406 149.488281 136.941406 149.976562 C 136.941406 150.496094 137.292969 150.832031 137.792969 150.832031 Z M 142.988281 160.183594 C 144.78125 160.183594 145.757812 159.164062 145.757812 157.933594 C 145.757812 156.488281 144.542969 156.042969 143.4375 155.621094 C 142.585938 155.300781 141.796875 155.035156 141.796875 154.304688 C 141.796875 153.71875 142.246094 153.210938 143.214844 153.210938 C 143.886719 153.210938 144.417969 153.492188 144.9375 153.886719 L 145.550781 153.058594 C 144.964844 152.597656 144.136719 152.207031 143.199219 152.207031 C 141.546875 152.207031 140.566406 153.15625 140.566406 154.359375 C 140.566406 155.648438 141.730469 156.167969 142.792969 156.558594 C 143.632812 156.882812 144.527344 157.21875 144.527344 158 C 144.527344 158.660156 144.039062 159.191406 143.03125 159.191406 C 142.121094 159.191406 141.4375 158.828125 140.777344 158.292969 L 140.148438 159.136719 C 140.875 159.738281 141.910156 160.183594 142.988281 160.183594 Z M 146.417969 162.507812 L 147.355469 162.507812 L 151.542969 148.886719 L 150.621094 148.886719 Z M 156.386719 160.183594 C 158.136719 160.183594 159.691406 158.6875 159.691406 156.070312 C 159.691406 153.746094 158.625 152.207031 156.65625 152.207031 C 155.8125 152.207031 154.960938 152.683594 154.273438 153.285156 L 154.316406 151.914062 L 154.316406 148.859375 L 153.042969 148.859375 L 153.042969 160.003906 L 154.0625 160.003906 L 154.175781 159.21875 L 154.230469 159.21875 C 154.890625 159.820312 155.6875 160.183594 156.386719 160.183594 Z M 156.175781 159.121094 C 155.671875 159.121094 154.988281 158.914062 154.316406 158.320312 L 154.316406 154.332031 C 155.042969 153.644531 155.714844 153.285156 156.359375 153.285156 C 157.800781 153.285156 158.359375 154.417969 158.359375 156.097656 C 158.359375 157.988281 157.4375 159.121094 156.175781 159.121094 Z M 163.445312 160.183594 C 164.378906 160.183594 165.234375 159.695312 165.964844 159.09375 L 166.003906 159.09375 L 166.117188 160.003906 L 167.167969 160.003906 L 167.167969 155.328125 C 167.167969 153.449219 166.382812 152.207031 164.535156 152.207031 C 163.316406 152.207031 162.242188 152.75 161.539062 153.199219 L 162.042969 154.078125 C 162.644531 153.675781 163.445312 153.269531 164.324219 153.269531 C 165.570312 153.269531 165.894531 154.207031 165.894531 155.1875 C 162.65625 155.550781 161.21875 156.375 161.21875 158.027344 C 161.21875 159.402344 162.167969 160.183594 163.445312 160.183594 Z M 163.804688 159.164062 C 163.050781 159.164062 162.464844 158.8125 162.464844 157.945312 C 162.464844 156.964844 163.332031 156.335938 165.894531 156.027344 L 165.894531 158.152344 C 165.152344 158.8125 164.546875 159.164062 163.804688 159.164062 Z M 171.984375 160.183594 C 172.445312 160.183594 172.949219 160.042969 173.382812 159.902344 L 173.132812 158.953125 C 172.878906 159.050781 172.53125 159.148438 172.261719 159.148438 C 171.382812 159.148438 171.085938 158.617188 171.085938 157.679688 L 171.085938 153.4375 L 173.144531 153.4375 L 173.144531 152.402344 L 171.085938 152.402344 L 171.085938 150.257812 L 170.023438 150.257812 L 169.871094 152.402344 L 168.679688 152.46875 L 168.679688 153.4375 L 169.8125 153.4375 L 169.8125 157.652344 C 169.8125 159.164062 170.359375 160.183594 171.984375 160.183594 Z M 177.863281 160.183594 C 178.773438 160.183594 179.644531 159.835938 180.328125 159.21875 L 179.765625 158.367188 C 179.289062 158.800781 178.675781 159.121094 177.976562 159.121094 C 176.578125 159.121094 175.625 157.960938 175.625 156.210938 C 175.625 154.460938 176.632812 153.269531 178.015625 153.269531 C 178.621094 153.269531 179.082031 153.550781 179.53125 153.941406 L 180.1875 153.101562 C 179.644531 152.625 178.957031 152.207031 177.960938 152.207031 C 176.015625 152.207031 174.292969 153.675781 174.292969 156.210938 C 174.292969 158.726562 175.847656 160.183594 177.863281 160.183594 Z M 181.992188 160.003906 L 183.269531 160.003906 L 183.269531 154.488281 C 184.039062 153.71875 184.566406 153.324219 185.355469 153.324219 C 186.363281 153.324219 186.796875 153.925781 186.796875 155.355469 L 186.796875 160.003906 L 188.066406 160.003906 L 188.066406 155.1875 C 188.066406 153.242188 187.34375 152.207031 185.746094 152.207031 C 184.707031 152.207031 183.925781 152.777344 183.222656 153.476562 L 183.269531 151.914062 L 183.269531 148.859375 L 181.992188 148.859375 Z M 181.992188 160.003906 "/>
<path fill="none" stroke-width="2" stroke-linecap="round" stroke-linejoin="miter" stroke="rgb(73.329163%, 74.899292%, 76.858521%)" stroke-opacity="1" stroke-miterlimit="4" d="M 3.901184 12.057678 L 53.432434 0.881897 " transform="matrix(1, 0, 0, 1, 56.466003, 153.899353)"/>
<path fill-rule="nonzero" fill="rgb(12.159729%, 13.729858%, 16.079712%)" fill-opacity="1" d="M 372.953125 97.414062 L 373.890625 97.414062 L 378.078125 83.792969 L 377.152344 83.792969 Z M 381.324219 95.089844 C 382.261719 95.089844 383.117188 94.597656 383.84375 93.996094 L 383.886719 93.996094 L 384 94.90625 L 385.046875 94.90625 L 385.046875 90.230469 C 385.046875 88.355469 384.265625 87.109375 382.417969 87.109375 C 381.199219 87.109375 380.121094 87.652344 379.421875 88.101562 L 379.925781 88.984375 C 380.527344 88.582031 381.324219 88.171875 382.207031 88.171875 C 383.453125 88.171875 383.777344 89.109375 383.777344 90.089844 C 380.539062 90.453125 379.101562 91.28125 379.101562 92.929688 C 379.101562 94.304688 380.050781 95.089844 381.324219 95.089844 Z M 381.6875 94.066406 C 380.933594 94.066406 380.34375 93.71875 380.34375 92.847656 C 380.34375 91.867188 381.214844 91.238281 383.777344 90.933594 L 383.777344 93.058594 C 383.035156 93.71875 382.429688 94.066406 381.6875 94.066406 Z M 387.472656 98.113281 L 388.746094 98.113281 L 388.746094 95.535156 L 388.714844 94.207031 C 389.402344 94.765625 390.132812 95.089844 390.816406 95.089844 C 392.566406 95.089844 394.121094 93.589844 394.121094 90.988281 C 394.121094 88.648438 393.058594 87.109375 391.097656 87.109375 C 390.214844 87.109375 389.363281 87.613281 388.675781 88.171875 L 388.632812 88.171875 L 388.519531 87.304688 L 387.472656 87.304688 Z M 390.605469 94.023438 C 390.105469 94.023438 389.429688 93.816406 388.746094 93.226562 L 388.746094 89.238281 C 389.488281 88.550781 390.144531 88.1875 390.789062 88.1875 C 392.230469 88.1875 392.789062 89.320312 392.789062 91 C 392.789062 92.890625 391.867188 94.023438 390.605469 94.023438 Z M 396.152344 94.90625 L 397.425781 94.90625 L 397.425781 87.304688 L 396.152344 87.304688 Z M 396.792969 85.738281 C 397.300781 85.738281 397.648438 85.402344 397.648438 84.882812 C 397.648438 84.394531 397.300781 84.058594 396.792969 84.058594 C 396.292969 84.058594 395.941406 84.394531 395.941406 84.882812 C 395.941406 85.402344 396.292969 85.738281 396.792969 85.738281 Z M 398.867188 97.414062 L 399.804688 97.414062 L 403.992188 83.792969 L 403.066406 83.792969 Z M 407.128906 94.90625 L 408.609375 94.90625 L 411.3125 87.304688 L 410.054688 87.304688 L 408.609375 91.632812 C 408.386719 92.375 408.148438 93.15625 407.910156 93.871094 L 407.855469 93.871094 C 407.617188 93.15625 407.378906 92.375 407.140625 91.632812 L 405.710938 87.304688 L 404.382812 87.304688 Z M 412.726562 94.90625 L 418.355469 94.90625 L 418.355469 93.84375 L 416.296875 93.84375 L 416.296875 84.632812 L 415.316406 84.632812 C 414.757812 84.96875 414.101562 85.203125 413.191406 85.375 L 413.191406 86.183594 L 415.007812 86.183594 L 415.007812 93.84375 L 412.726562 93.84375 Z M 419.417969 97.414062 L 420.355469 97.414062 L 424.542969 83.792969 L 423.621094 83.792969 Z M 426.042969 94.90625 L 427.316406 94.90625 L 427.316406 89.390625 C 428.085938 88.621094 428.617188 88.226562 429.402344 88.226562 C 430.410156 88.226562 430.84375 88.828125 430.84375 90.257812 L 430.84375 94.90625 L 432.117188 94.90625 L 432.117188 90.089844 C 432.117188 88.144531 431.390625 87.109375 429.792969 87.109375 C 428.753906 87.109375 427.972656 87.679688 427.246094 88.394531 L 427.203125 88.394531 L 427.089844 87.304688 L 426.042969 87.304688 Z M 436.347656 95.089844 C 437.28125 95.089844 438.136719 94.597656 438.863281 93.996094 L 438.90625 93.996094 L 439.019531 94.90625 L 440.066406 94.90625 L 440.066406 90.230469 C 440.066406 88.355469 439.285156 87.109375 437.4375 87.109375 C 436.21875 87.109375 435.144531 87.652344 434.441406 88.101562 L 434.945312 88.984375 C 435.546875 88.582031 436.347656 88.171875 437.226562 88.171875 C 438.472656 88.171875 438.796875 89.109375 438.796875 90.089844 C 435.558594 90.453125 434.121094 91.28125 434.121094 92.929688 C 434.121094 94.304688 435.070312 95.089844 436.347656 95.089844 Z M 436.707031 94.066406 C 435.953125 94.066406 435.363281 93.71875 435.363281 92.847656 C 435.363281 91.867188 436.234375 91.238281 438.796875 90.933594 L 438.796875 93.058594 C 438.054688 93.71875 437.449219 94.066406 436.707031 94.066406 Z M 442.492188 94.90625 L 443.765625 94.90625 L 443.765625 89.390625 C 444.464844 88.609375 445.109375 88.226562 445.683594 88.226562 C 446.648438 88.226562 447.097656 88.828125 447.097656 90.257812 L 447.097656 94.90625 L 448.371094 94.90625 L 448.371094 89.390625 C 449.085938 88.609375 449.699219 88.226562 450.289062 88.226562 C 451.253906 88.226562 451.703125 88.828125 451.703125 90.257812 L 451.703125 94.90625 L 452.976562 94.90625 L 452.976562 90.089844 C 452.976562 88.144531 452.238281 87.109375 450.667969 87.109375 C 449.746094 87.109375 448.945312 87.710938 448.164062 88.566406 C 447.855469 87.667969 447.222656 87.109375 446.058594 87.109375 C 445.152344 87.109375 444.355469 87.679688 443.695312 88.410156 L 443.652344 88.410156 L 443.542969 87.304688 L 442.492188 87.304688 Z M 458.523438 95.089844 C 459.558594 95.089844 460.371094 94.738281 461.039062 94.304688 L 460.578125 93.464844 C 460.019531 93.84375 459.417969 94.066406 458.675781 94.066406 C 457.234375 94.066406 456.238281 93.03125 456.15625 91.40625 L 461.28125 91.40625 C 461.308594 91.226562 461.335938 90.960938 461.335938 90.679688 C 461.335938 88.507812 460.246094 87.109375 458.308594 87.109375 C 456.546875 87.109375 454.882812 88.648438 454.882812 91.113281 C 454.882812 93.617188 456.503906 95.089844 458.523438 95.089844 Z M 456.144531 90.484375 C 456.296875 88.996094 457.246094 88.132812 458.328125 88.132812 C 459.515625 88.132812 460.214844 88.957031 460.214844 90.484375 Z M 465.199219 95.089844 C 466.992188 95.089844 467.96875 94.066406 467.96875 92.835938 C 467.96875 91.394531 466.753906 90.945312 465.648438 90.523438 C 464.792969 90.203125 464.007812 89.9375 464.007812 89.210938 C 464.007812 88.621094 464.457031 88.117188 465.421875 88.117188 C 466.097656 88.117188 466.625 88.394531 467.144531 88.789062 L 467.761719 87.960938 C 467.171875 87.5 466.347656 87.109375 465.410156 87.109375 C 463.757812 87.109375 462.777344 88.0625 462.777344 89.265625 C 462.777344 90.550781 463.941406 91.070312 465.003906 91.460938 C 465.84375 91.785156 466.738281 92.121094 466.738281 92.902344 C 466.738281 93.5625 466.25 94.09375 465.242188 94.09375 C 464.332031 94.09375 463.644531 93.730469 462.988281 93.199219 L 462.359375 94.039062 C 463.085938 94.640625 464.121094 95.089844 465.199219 95.089844 Z M 469.765625 98.113281 L 471.039062 98.113281 L 471.039062 95.535156 L 471.007812 94.207031 C 471.695312 94.765625 472.421875 95.089844 473.109375 95.089844 C 474.859375 95.089844 476.410156 93.589844 476.410156 90.988281 C 476.410156 88.648438 475.347656 87.109375 473.390625 87.109375 C 472.507812 87.109375 471.652344 87.613281 470.96875 88.171875 L 470.925781 88.171875 L 470.8125 87.304688 L 469.765625 87.304688 Z M 472.898438 94.023438 C 472.394531 94.023438 471.722656 93.816406 471.039062 93.226562 L 471.039062 89.238281 C 471.78125 88.550781 472.4375 88.1875 473.082031 88.1875 C 474.523438 88.1875 475.082031 89.320312 475.082031 91 C 475.082031 92.890625 474.160156 94.023438 472.898438 94.023438 Z M 480.195312 95.089844 C 481.128906 95.089844 481.984375 94.597656 482.714844 93.996094 L 482.753906 93.996094 L 482.867188 94.90625 L 483.917969 94.90625 L 483.917969 90.230469 C 483.917969 88.355469 483.132812 87.109375 481.285156 87.109375 C 480.066406 87.109375 478.992188 87.652344 478.289062 88.101562 L 478.792969 88.984375 C 479.394531 88.582031 480.195312 88.171875 481.074219 88.171875 C 482.320312 88.171875 482.644531 89.109375 482.644531 90.089844 C 479.40625 90.453125 477.96875 91.28125 477.96875 92.929688 C 477.96875 94.304688 478.917969 95.089844 480.195312 95.089844 Z M 480.554688 94.066406 C 479.800781 94.066406 479.214844 93.71875 479.214844 92.847656 C 479.214844 91.867188 480.082031 91.238281 482.644531 90.933594 L 482.644531 93.058594 C 481.902344 93.71875 481.296875 94.066406 480.554688 94.066406 Z M 489.335938 95.089844 C 490.246094 95.089844 491.113281 94.738281 491.796875 94.125 L 491.238281 93.269531 C 490.761719 93.703125 490.148438 94.023438 489.445312 94.023438 C 488.050781 94.023438 487.09375 92.863281 487.09375 91.113281 C 487.09375 89.363281 488.105469 88.171875 489.488281 88.171875 C 490.09375 88.171875 490.554688 88.453125 491.003906 88.84375 L 491.660156 88.007812 C 491.113281 87.527344 490.429688 87.109375 489.433594 87.109375 C 487.488281 87.109375 485.765625 88.582031 485.765625 91.113281 C 485.765625 93.632812 487.320312 95.089844 489.335938 95.089844 Z M 496.53125 95.089844 C 497.566406 95.089844 498.382812 94.738281 499.050781 94.304688 L 498.589844 93.464844 C 498.027344 93.84375 497.425781 94.066406 496.6875 94.066406 C 495.242188 94.066406 494.25 93.03125 494.167969 91.40625 L 499.289062 91.40625 C 499.316406 91.226562 499.34375 90.960938 499.34375 90.679688 C 499.34375 88.507812 498.253906 87.109375 496.320312 87.109375 C 494.554688 87.109375 492.890625 88.648438 492.890625 91.113281 C 492.890625 93.617188 494.515625 95.089844 496.53125 95.089844 Z M 494.152344 90.484375 C 494.308594 88.996094 495.257812 88.132812 496.335938 88.132812 C 497.527344 88.132812 498.222656 88.957031 498.222656 90.484375 Z M 503.207031 95.089844 C 505.003906 95.089844 505.980469 94.066406 505.980469 92.835938 C 505.980469 91.394531 504.761719 90.945312 503.660156 90.523438 C 502.804688 90.203125 502.019531 89.9375 502.019531 89.210938 C 502.019531 88.621094 502.464844 88.117188 503.433594 88.117188 C 504.105469 88.117188 504.636719 88.394531 505.15625 88.789062 L 505.769531 87.960938 C 505.183594 87.5 504.355469 87.109375 503.417969 87.109375 C 501.769531 87.109375 500.789062 88.0625 500.789062 89.265625 C 500.789062 90.550781 501.949219 91.070312 503.011719 91.460938 C 503.855469 91.785156 504.75 92.121094 504.75 92.902344 C 504.75 93.5625 504.261719 94.09375 503.253906 94.09375 C 502.34375 94.09375 501.65625 93.730469 500.996094 93.199219 L 500.367188 94.039062 C 501.09375 94.640625 502.132812 95.089844 503.207031 95.089844 Z M 506.640625 97.414062 L 507.574219 97.414062 L 511.761719 83.792969 L 510.839844 83.792969 Z M 513.917969 95.089844 C 514.425781 95.089844 514.84375 94.699219 514.84375 94.125 C 514.84375 93.535156 514.425781 93.128906 513.917969 93.128906 C 513.414062 93.128906 512.996094 93.535156 512.996094 94.125 C 512.996094 94.699219 513.414062 95.089844 513.917969 95.089844 Z M 517.808594 95.089844 C 518.316406 95.089844 518.738281 94.699219 518.738281 94.125 C 518.738281 93.535156 518.316406 93.128906 517.808594 93.128906 C 517.308594 93.128906 516.886719 93.535156 516.886719 94.125 C 516.886719 94.699219 517.308594 95.089844 517.808594 95.089844 Z M 521.703125 95.089844 C 522.207031 95.089844 522.628906 94.699219 522.628906 94.125 C 522.628906 93.535156 522.207031 93.128906 521.703125 93.128906 C 521.199219 93.128906 520.78125 93.535156 520.78125 94.125 C 520.78125 94.699219 521.199219 95.089844 521.703125 95.089844 Z M 523.804688 97.414062 L 524.738281 97.414062 L 528.925781 83.792969 L 528.003906 83.792969 Z M 530.425781 98.113281 L 531.699219 98.113281 L 531.699219 95.535156 L 531.671875 94.207031 C 532.355469 94.765625 533.085938 95.089844 533.773438 95.089844 C 535.523438 95.089844 537.074219 93.589844 537.074219 90.988281 C 537.074219 88.648438 536.011719 87.109375 534.050781 87.109375 C 533.171875 87.109375 532.316406 87.613281 531.628906 88.171875 L 531.589844 88.171875 L 531.476562 87.304688 L 530.425781 87.304688 Z M 533.558594 94.023438 C 533.058594 94.023438 532.382812 93.816406 531.699219 93.226562 L 531.699219 89.238281 C 532.441406 88.550781 533.097656 88.1875 533.746094 88.1875 C 535.183594 88.1875 535.746094 89.320312 535.746094 91 C 535.746094 92.890625 534.820312 94.023438 533.558594 94.023438 Z M 542.058594 95.089844 C 543.921875 95.089844 545.585938 93.632812 545.585938 91.113281 C 545.585938 88.582031 543.921875 87.109375 542.058594 87.109375 C 540.195312 87.109375 538.53125 88.582031 538.53125 91.113281 C 538.53125 93.632812 540.195312 95.089844 542.058594 95.089844 Z M 542.058594 94.023438 C 540.742188 94.023438 539.863281 92.863281 539.863281 91.113281 C 539.863281 89.363281 540.742188 88.171875 542.058594 88.171875 C 543.375 88.171875 544.269531 89.363281 544.269531 91.113281 C 544.269531 92.863281 543.375 94.023438 542.058594 94.023438 Z M 550.179688 95.089844 C 551.089844 95.089844 551.886719 94.597656 552.488281 94.011719 L 552.53125 94.011719 L 552.640625 94.90625 L 553.679688 94.90625 L 553.679688 83.765625 L 552.417969 83.765625 L 552.417969 86.691406 L 552.472656 88.007812 C 551.804688 87.445312 551.230469 87.109375 550.335938 87.109375 C 548.597656 87.109375 547.042969 88.648438 547.042969 91.113281 C 547.042969 93.644531 548.277344 95.089844 550.179688 95.089844 Z M 550.460938 94.023438 C 549.113281 94.023438 548.359375 92.929688 548.359375 91.097656 C 548.359375 89.363281 549.328125 88.1875 550.558594 88.1875 C 551.1875 88.1875 551.761719 88.410156 552.417969 88.984375 L 552.417969 92.976562 C 551.777344 93.675781 551.160156 94.023438 550.460938 94.023438 Z M 558.253906 95.089844 C 560.050781 95.089844 561.027344 94.066406 561.027344 92.835938 C 561.027344 91.394531 559.8125 90.945312 558.707031 90.523438 C 557.851562 90.203125 557.066406 89.9375 557.066406 89.210938 C 557.066406 88.621094 557.515625 88.117188 558.480469 88.117188 C 559.15625 88.117188 559.683594 88.394531 560.203125 88.789062 L 560.820312 87.960938 C 560.230469 87.5 559.402344 87.109375 558.46875 87.109375 C 556.816406 87.109375 555.835938 88.0625 555.835938 89.265625 C 555.835938 90.550781 556.996094 91.070312 558.0625 91.460938 C 558.902344 91.785156 559.796875 92.121094 559.796875 92.902344 C 559.796875 93.5625 559.308594 94.09375 558.300781 94.09375 C 557.390625 94.09375 556.703125 93.730469 556.042969 93.199219 L 555.414062 94.039062 C 556.144531 94.640625 557.179688 95.089844 558.253906 95.089844 Z M 558.253906 95.089844 "/>
<path fill="none" stroke-width="2" stroke-linecap="round" stroke-linejoin="miter" stroke="rgb(73.329163%, 74.899292%, 76.858521%)" stroke-opacity="1" stroke-miterlimit="4" d="M 3.998906 2.970673 L 94.420781 0.126923 " transform="matrix(1, 0, 0, 1, 274.38, 88.802765)"/>
<path fill-rule="nonzero" fill="rgb(12.159729%, 13.729858%, 16.079712%)" fill-opacity="1" d="M 372.953125 155.175781 L 373.890625 155.175781 L 378.078125 141.554688 L 377.152344 141.554688 Z M 381.324219 152.851562 C 382.261719 152.851562 383.117188 152.363281 383.84375 151.761719 L 383.886719 151.761719 L 384 152.671875 L 385.046875 152.671875 L 385.046875 147.996094 C 385.046875 146.117188 384.265625 144.875 382.417969 144.875 C 381.199219 144.875 380.121094 145.417969 379.421875 145.863281 L 379.925781 146.746094 C 380.527344 146.34375 381.324219 145.9375 382.207031 145.9375 C 383.453125 145.9375 383.777344 146.875 383.777344 147.855469 C 380.539062 148.214844 379.101562 149.042969 379.101562 150.695312 C 379.101562 152.070312 380.050781 152.851562 381.324219 152.851562 Z M 381.6875 151.828125 C 380.933594 151.828125 380.34375 151.480469 380.34375 150.613281 C 380.34375 149.632812 381.214844 149.003906 383.777344 148.695312 L 383.777344 150.820312 C 383.035156 151.480469 382.429688 151.828125 381.6875 151.828125 Z M 387.472656 155.875 L 388.746094 155.875 L 388.746094 153.300781 L 388.714844 151.96875 C 389.402344 152.53125 390.132812 152.851562 390.816406 152.851562 C 392.566406 152.851562 394.121094 151.355469 394.121094 148.75 C 394.121094 146.410156 393.058594 144.875 391.097656 144.875 C 390.214844 144.875 389.363281 145.375 388.675781 145.9375 L 388.632812 145.9375 L 388.519531 145.070312 L 387.472656 145.070312 Z M 390.605469 151.789062 C 390.105469 151.789062 389.429688 151.578125 388.746094 150.988281 L 388.746094 147 C 389.488281 146.3125 390.144531 145.949219 390.789062 145.949219 C 392.230469 145.949219 392.789062 147.085938 392.789062 148.761719 C 392.789062 150.652344 391.867188 151.789062 390.605469 151.789062 Z M 396.152344 152.671875 L 397.425781 152.671875 L 397.425781 145.070312 L 396.152344 145.070312 Z M 396.792969 143.5 C 397.300781 143.5 397.648438 143.164062 397.648438 142.644531 C 397.648438 142.15625 397.300781 141.820312 396.792969 141.820312 C 396.292969 141.820312 395.941406 142.15625 395.941406 142.644531 C 395.941406 143.164062 396.292969 143.5 396.792969 143.5 Z M 401.988281 152.851562 C 403.78125 152.851562 404.761719 151.828125 404.761719 150.597656 C 404.761719 149.15625 403.542969 148.707031 402.4375 148.289062 C 401.585938 147.96875 400.796875 147.699219 400.796875 146.972656 C 400.796875 146.382812 401.246094 145.878906 402.214844 145.878906 C 402.886719 145.878906 403.417969 146.160156 403.9375 146.550781 L 404.550781 145.726562 C 403.964844 145.261719 403.136719 144.875 402.199219 144.875 C 400.550781 144.875 399.566406 145.824219 399.566406 147.027344 C 399.566406 148.316406 400.730469 148.835938 401.792969 149.226562 C 402.632812 149.550781 403.53125 149.882812 403.53125 150.667969 C 403.53125 151.328125 403.039062 151.855469 402.03125 151.855469 C 401.125 151.855469 400.4375 151.496094 399.777344 150.960938 L 399.148438 151.800781 C 399.875 152.402344 400.910156 152.851562 401.988281 152.851562 Z M 405.417969 155.175781 L 406.355469 155.175781 L 410.542969 141.554688 L 409.621094 141.554688 Z M 415.386719 152.851562 C 417.136719 152.851562 418.691406 151.355469 418.691406 148.734375 C 418.691406 146.410156 417.625 144.875 415.65625 144.875 C 414.8125 144.875 413.960938 145.347656 413.273438 145.949219 L 413.316406 144.578125 L 413.316406 141.527344 L 412.042969 141.527344 L 412.042969 152.671875 L 413.0625 152.671875 L 413.175781 151.886719 L 413.230469 151.886719 C 413.890625 152.488281 414.6875 152.851562 415.386719 152.851562 Z M 415.175781 151.789062 C 414.671875 151.789062 413.988281 151.578125 413.316406 150.988281 L 413.316406 147 C 414.042969 146.3125 414.714844 145.949219 415.359375 145.949219 C 416.800781 145.949219 417.359375 147.085938 417.359375 148.761719 C 417.359375 150.652344 416.4375 151.789062 415.175781 151.789062 Z M 422.445312 152.851562 C 423.378906 152.851562 424.234375 152.363281 424.964844 151.761719 L 425.003906 151.761719 L 425.117188 152.671875 L 426.167969 152.671875 L 426.167969 147.996094 C 426.167969 146.117188 425.382812 144.875 423.535156 144.875 C 422.316406 144.875 421.242188 145.417969 420.539062 145.863281 L 421.042969 146.746094 C 421.644531 146.34375 422.445312 145.9375 423.324219 145.9375 C 424.570312 145.9375 424.894531 146.875 424.894531 147.855469 C 421.65625 148.214844 420.21875 149.042969 420.21875 150.695312 C 420.21875 152.070312 421.167969 152.851562 422.445312 152.851562 Z M 422.804688 151.828125 C 422.050781 151.828125 421.464844 151.480469 421.464844 150.613281 C 421.464844 149.632812 422.332031 149.003906 424.894531 148.695312 L 424.894531 150.820312 C 424.152344 151.480469 423.546875 151.828125 422.804688 151.828125 Z M 430.984375 152.851562 C 431.445312 152.851562 431.949219 152.710938 432.382812 152.570312 L 432.132812 151.621094 C 431.878906 151.714844 431.53125 151.816406 431.261719 151.816406 C 430.382812 151.816406 430.085938 151.28125 430.085938 150.347656 L 430.085938 146.105469 L 432.144531 146.105469 L 432.144531 145.070312 L 430.085938 145.070312 L 430.085938 142.925781 L 429.023438 142.925781 L 428.871094 145.070312 L 427.679688 145.136719 L 427.679688 146.105469 L 428.8125 146.105469 L 428.8125 150.320312 C 428.8125 151.828125 429.359375 152.851562 430.984375 152.851562 Z M 436.863281 152.851562 C 437.773438 152.851562 438.644531 152.503906 439.328125 151.886719 L 438.765625 151.03125 C 438.289062 151.46875 437.675781 151.789062 436.976562 151.789062 C 435.578125 151.789062 434.625 150.625 434.625 148.875 C 434.625 147.125 435.632812 145.9375 437.015625 145.9375 C 437.621094 145.9375 438.082031 146.21875 438.53125 146.605469 L 439.1875 145.769531 C 438.644531 145.289062 437.957031 144.875 436.960938 144.875 C 435.015625 144.875 433.292969 146.34375 433.292969 148.875 C 433.292969 151.394531 434.847656 152.851562 436.863281 152.851562 Z M 440.992188 152.671875 L 442.269531 152.671875 L 442.269531 147.152344 C 443.039062 146.382812 443.566406 145.992188 444.355469 145.992188 C 445.363281 145.992188 445.796875 146.59375 445.796875 148.023438 L 445.796875 152.671875 L 447.066406 152.671875 L 447.066406 147.855469 C 447.066406 145.910156 446.34375 144.875 444.746094 144.875 C 443.707031 144.875 442.925781 145.445312 442.222656 146.144531 L 442.269531 144.578125 L 442.269531 141.527344 L 440.992188 141.527344 Z M 448.355469 155.175781 L 449.292969 155.175781 L 453.480469 141.554688 L 452.558594 141.554688 Z M 456.617188 152.671875 L 458.101562 152.671875 L 460.804688 145.070312 L 459.542969 145.070312 L 458.101562 149.394531 C 457.878906 150.136719 457.640625 150.921875 457.398438 151.632812 L 457.34375 151.632812 C 457.105469 150.921875 456.871094 150.136719 456.628906 149.394531 L 455.203125 145.070312 L 453.871094 145.070312 Z M 462.214844 152.671875 L 467.84375 152.671875 L 467.84375 151.605469 L 465.789062 151.605469 L 465.789062 142.394531 L 464.808594 142.394531 C 464.246094 142.730469 463.589844 142.964844 462.679688 143.136719 L 462.679688 143.949219 L 464.5 143.949219 L 464.5 151.605469 L 462.214844 151.605469 Z M 468.910156 155.175781 L 469.847656 155.175781 L 474.03125 141.554688 L 473.109375 141.554688 Z M 474.746094 156.070312 C 476.246094 156.070312 476.820312 155.09375 476.820312 153.539062 L 476.820312 145.070312 L 475.546875 145.070312 L 475.546875 153.539062 C 475.546875 154.460938 475.363281 155.035156 474.605469 155.035156 C 474.328125 155.035156 474.074219 154.96875 473.882812 154.894531 L 473.628906 155.875 C 473.894531 155.976562 474.285156 156.070312 474.746094 156.070312 Z M 476.175781 143.5 C 476.667969 143.5 477.015625 143.164062 477.015625 142.644531 C 477.015625 142.15625 476.667969 141.820312 476.175781 141.820312 C 475.671875 141.820312 475.320312 142.15625 475.320312 142.644531 C 475.320312 143.164062 475.671875 143.5 476.175781 143.5 Z M 482.347656 152.851562 C 484.210938 152.851562 485.875 151.394531 485.875 148.875 C 485.875 146.34375 484.210938 144.875 482.347656 144.875 C 480.484375 144.875 478.820312 146.34375 478.820312 148.875 C 478.820312 151.394531 480.484375 152.851562 482.347656 152.851562 Z M 482.347656 151.789062 C 481.03125 151.789062 480.152344 150.625 480.152344 148.875 C 480.152344 147.125 481.03125 145.9375 482.347656 145.9375 C 483.664062 145.9375 484.558594 147.125 484.558594 148.875 C 484.558594 150.625 483.664062 151.789062 482.347656 151.789062 Z M 491.226562 152.851562 C 492.976562 152.851562 494.527344 151.355469 494.527344 148.734375 C 494.527344 146.410156 493.464844 144.875 491.492188 144.875 C 490.652344 144.875 489.796875 145.347656 489.109375 145.949219 L 489.15625 144.578125 L 489.15625 141.527344 L 487.878906 141.527344 L 487.878906 152.671875 L 488.902344 152.671875 L 489.015625 151.886719 L 489.070312 151.886719 C 489.730469 152.488281 490.527344 152.851562 491.226562 152.851562 Z M 491.015625 151.789062 C 490.511719 151.789062 489.824219 151.578125 489.15625 150.988281 L 489.15625 147 C 489.882812 146.3125 490.554688 145.949219 491.199219 145.949219 C 492.636719 145.949219 493.199219 147.085938 493.199219 148.761719 C 493.199219 150.652344 492.277344 151.789062 491.015625 151.789062 Z M 498.519531 152.851562 C 500.3125 152.851562 501.289062 151.828125 501.289062 150.597656 C 501.289062 149.15625 500.074219 148.707031 498.96875 148.289062 C 498.113281 147.96875 497.328125 147.699219 497.328125 146.972656 C 497.328125 146.382812 497.777344 145.878906 498.742188 145.878906 C 499.417969 145.878906 499.945312 146.160156 500.464844 146.550781 L 501.082031 145.726562 C 500.492188 145.261719 499.667969 144.875 498.730469 144.875 C 497.078125 144.875 496.097656 145.824219 496.097656 147.027344 C 496.097656 148.316406 497.261719 148.835938 498.324219 149.226562 C 499.164062 149.550781 500.058594 149.882812 500.058594 150.667969 C 500.058594 151.328125 499.570312 151.855469 498.5625 151.855469 C 497.652344 151.855469 496.964844 151.496094 496.304688 150.960938 L 495.675781 151.800781 C 496.40625 152.402344 497.441406 152.851562 498.519531 152.851562 Z M 498.519531 152.851562 "/>
<path fill="none" stroke-width="2" stroke-linecap="round" stroke-linejoin="miter" stroke="rgb(73.329163%, 74.899292%, 76.858521%)" stroke-opacity="1" stroke-miterlimit="4" d="M 3.748841 1.396317 L 53.584778 19.939286 " transform="matrix(1, 0, 0, 1, 56.466003, 166.838058)"/>
<path fill-rule="nonzero" fill="rgb(12.159729%, 13.729858%, 16.079712%)" fill-opacity="1" d="M 113.953125 196.78125 L 114.890625 196.78125 L 119.078125 183.160156 L 118.152344 183.160156 Z M 122.324219 194.457031 C 123.261719 194.457031 124.117188 193.96875 124.84375 193.367188 L 124.886719 193.367188 L 125 194.273438 L 126.046875 194.273438 L 126.046875 189.597656 C 126.046875 187.722656 125.265625 186.480469 123.417969 186.480469 C 122.199219 186.480469 121.121094 187.023438 120.421875 187.46875 L 120.925781 188.351562 C 121.527344 187.949219 122.324219 187.542969 123.207031 187.542969 C 124.453125 187.542969 124.777344 188.476562 124.777344 189.460938 C 121.539062 189.820312 120.101562 190.648438 120.101562 192.300781 C 120.101562 193.671875 121.050781 194.457031 122.324219 194.457031 Z M 122.6875 193.433594 C 121.933594 193.433594 121.34375 193.085938 121.34375 192.21875 C 121.34375 191.238281 122.214844 190.609375 124.777344 190.300781 L 124.777344 192.425781 C 124.035156 193.085938 123.429688 193.433594 122.6875 193.433594 Z M 128.472656 197.480469 L 129.746094 197.480469 L 129.746094 194.902344 L 129.714844 193.574219 C 130.402344 194.136719 131.132812 194.457031 131.816406 194.457031 C 133.566406 194.457031 135.121094 192.960938 135.121094 190.355469 C 135.121094 188.015625 134.058594 186.480469 132.097656 186.480469 C 131.214844 186.480469 130.363281 186.980469 129.675781 187.542969 L 129.632812 187.542969 L 129.519531 186.671875 L 128.472656 186.671875 Z M 131.605469 193.394531 C 131.105469 193.394531 130.429688 193.183594 129.746094 192.59375 L 129.746094 188.605469 C 130.488281 187.917969 131.144531 187.554688 131.789062 187.554688 C 133.230469 187.554688 133.789062 188.691406 133.789062 190.367188 C 133.789062 192.257812 132.867188 193.394531 131.605469 193.394531 Z M 137.152344 194.273438 L 138.425781 194.273438 L 138.425781 186.671875 L 137.152344 186.671875 Z M 137.792969 185.105469 C 138.300781 185.105469 138.648438 184.769531 138.648438 184.25 C 138.648438 183.761719 138.300781 183.425781 137.792969 183.425781 C 137.292969 183.425781 136.941406 183.761719 136.941406 184.25 C 136.941406 184.769531 137.292969 185.105469 137.792969 185.105469 Z M 142.988281 194.457031 C 144.78125 194.457031 145.757812 193.433594 145.757812 192.203125 C 145.757812 190.761719 144.542969 190.3125 143.4375 189.894531 C 142.585938 189.570312 141.796875 189.304688 141.796875 188.578125 C 141.796875 187.988281 142.246094 187.484375 143.214844 187.484375 C 143.886719 187.484375 144.417969 187.765625 144.9375 188.15625 L 145.550781 187.328125 C 144.964844 186.867188 144.136719 186.480469 143.199219 186.480469 C 141.546875 186.480469 140.566406 187.429688 140.566406 188.632812 C 140.566406 189.921875 141.730469 190.441406 142.792969 190.828125 C 143.632812 191.15625 144.527344 191.488281 144.527344 192.273438 C 144.527344 192.933594 144.039062 193.460938 143.03125 193.460938 C 142.121094 193.460938 141.4375 193.097656 140.777344 192.566406 L 140.148438 193.40625 C 140.875 194.007812 141.910156 194.457031 142.988281 194.457031 Z M 146.417969 196.78125 L 147.355469 196.78125 L 151.542969 183.160156 L 150.621094 183.160156 Z M 156.386719 194.457031 C 158.136719 194.457031 159.691406 192.960938 159.691406 190.339844 C 159.691406 188.015625 158.625 186.480469 156.65625 186.480469 C 155.8125 186.480469 154.960938 186.953125 154.273438 187.554688 L 154.316406 186.183594 L 154.316406 183.132812 L 153.042969 183.132812 L 153.042969 194.273438 L 154.0625 194.273438 L 154.175781 193.492188 L 154.230469 193.492188 C 154.890625 194.09375 155.6875 194.457031 156.386719 194.457031 Z M 156.175781 193.394531 C 155.671875 193.394531 154.988281 193.183594 154.316406 192.59375 L 154.316406 188.605469 C 155.042969 187.917969 155.714844 187.554688 156.359375 187.554688 C 157.800781 187.554688 158.359375 188.691406 158.359375 190.367188 C 158.359375 192.257812 157.4375 193.394531 156.175781 193.394531 Z M 163.445312 194.457031 C 164.378906 194.457031 165.234375 193.96875 165.964844 193.367188 L 166.003906 193.367188 L 166.117188 194.273438 L 167.167969 194.273438 L 167.167969 189.597656 C 167.167969 187.722656 166.382812 186.480469 164.535156 186.480469 C 163.316406 186.480469 162.242188 187.023438 161.539062 187.46875 L 162.042969 188.351562 C 162.644531 187.949219 163.445312 187.542969 164.324219 187.542969 C 165.570312 187.542969 165.894531 188.476562 165.894531 189.460938 C 162.65625 189.820312 161.21875 190.648438 161.21875 192.300781 C 161.21875 193.671875 162.167969 194.457031 163.445312 194.457031 Z M 163.804688 193.433594 C 163.050781 193.433594 162.464844 193.085938 162.464844 192.21875 C 162.464844 191.238281 163.332031 190.609375 165.894531 190.300781 L 165.894531 192.425781 C 165.152344 193.085938 164.546875 193.433594 163.804688 193.433594 Z M 171.984375 194.457031 C 172.445312 194.457031 172.949219 194.316406 173.382812 194.175781 L 173.132812 193.226562 C 172.878906 193.320312 172.53125 193.421875 172.261719 193.421875 C 171.382812 193.421875 171.085938 192.886719 171.085938 191.949219 L 171.085938 187.710938 L 173.144531 187.710938 L 173.144531 186.671875 L 171.085938 186.671875 L 171.085938 184.53125 L 170.023438 184.53125 L 169.871094 186.671875 L 168.679688 186.742188 L 168.679688 187.710938 L 169.8125 187.710938 L 169.8125 191.921875 C 169.8125 193.433594 170.359375 194.457031 171.984375 194.457031 Z M 177.863281 194.457031 C 178.773438 194.457031 179.644531 194.109375 180.328125 193.492188 L 179.765625 192.636719 C 179.289062 193.070312 178.675781 193.394531 177.976562 193.394531 C 176.578125 193.394531 175.625 192.230469 175.625 190.480469 C 175.625 188.730469 176.632812 187.542969 178.015625 187.542969 C 178.621094 187.542969 179.082031 187.820312 179.53125 188.210938 L 180.1875 187.375 C 179.644531 186.894531 178.957031 186.480469 177.960938 186.480469 C 176.015625 186.480469 174.292969 187.949219 174.292969 190.480469 C 174.292969 193 175.847656 194.457031 177.863281 194.457031 Z M 181.992188 194.273438 L 183.269531 194.273438 L 183.269531 188.757812 C 184.039062 187.988281 184.566406 187.597656 185.355469 187.597656 C 186.363281 187.597656 186.796875 188.199219 186.796875 189.625 L 186.796875 194.273438 L 188.066406 194.273438 L 188.066406 189.460938 C 188.066406 187.515625 187.34375 186.480469 185.746094 186.480469 C 184.707031 186.480469 183.925781 187.050781 183.222656 187.75 L 183.269531 186.183594 L 183.269531 183.132812 L 181.992188 183.132812 Z M 191.148438 194.457031 C 191.652344 194.457031 192.074219 194.066406 192.074219 193.492188 C 192.074219 192.90625 191.652344 192.496094 191.148438 192.496094 C 190.644531 192.496094 190.226562 192.90625 190.226562 193.492188 C 190.226562 194.066406 190.644531 194.457031 191.148438 194.457031 Z M 196.019531 194.273438 L 197.503906 194.273438 L 200.207031 186.671875 L 198.945312 186.671875 L 197.503906 191 C 197.28125 191.742188 197.042969 192.523438 196.804688 193.238281 L 196.75 193.238281 C 196.511719 192.523438 196.273438 191.742188 196.035156 191 L 194.605469 186.671875 L 193.277344 186.671875 Z M 204.632812 194.457031 C 206.492188 194.457031 208.160156 193 208.160156 190.480469 C 208.160156 187.949219 206.492188 186.480469 204.632812 186.480469 C 202.769531 186.480469 201.105469 187.949219 201.105469 190.480469 C 201.105469 193 202.769531 194.457031 204.632812 194.457031 Z M 204.632812 193.394531 C 203.316406 193.394531 202.433594 192.230469 202.433594 190.480469 C 202.433594 188.730469 203.316406 187.542969 204.632812 187.542969 C 205.945312 187.542969 206.84375 188.730469 206.84375 190.480469 C 206.84375 192.230469 205.945312 193.394531 204.632812 193.394531 Z M 211.503906 194.457031 C 211.855469 194.457031 212.066406 194.414062 212.246094 194.34375 L 212.066406 193.367188 C 211.925781 193.394531 211.871094 193.394531 211.800781 193.394531 C 211.605469 193.394531 211.4375 193.238281 211.4375 192.847656 L 211.4375 183.132812 L 210.160156 183.132812 L 210.160156 192.765625 C 210.160156 193.839844 210.554688 194.457031 211.503906 194.457031 Z M 217.144531 194.457031 C 218.058594 194.457031 218.925781 194.109375 219.609375 193.492188 L 219.050781 192.636719 C 218.574219 193.070312 217.960938 193.394531 217.257812 193.394531 C 215.859375 193.394531 214.90625 192.230469 214.90625 190.480469 C 214.90625 188.730469 215.914062 187.542969 217.300781 187.542969 C 217.90625 187.542969 218.367188 187.820312 218.8125 188.210938 L 219.46875 187.375 C 218.925781 186.894531 218.238281 186.480469 217.246094 186.480469 C 215.300781 186.480469 213.578125 187.949219 213.578125 190.480469 C 213.578125 193 215.132812 194.457031 217.144531 194.457031 Z M 223.027344 194.457031 C 223.964844 194.457031 224.820312 193.96875 225.546875 193.367188 L 225.589844 193.367188 L 225.699219 194.273438 L 226.75 194.273438 L 226.75 189.597656 C 226.75 187.722656 225.96875 186.480469 224.117188 186.480469 C 222.902344 186.480469 221.824219 187.023438 221.125 187.46875 L 221.625 188.351562 C 222.226562 187.949219 223.027344 187.542969 223.910156 187.542969 C 225.152344 187.542969 225.480469 188.476562 225.480469 189.460938 C 222.242188 189.820312 220.804688 190.648438 220.804688 192.300781 C 220.804688 193.671875 221.753906 194.457031 223.027344 194.457031 Z M 223.390625 193.433594 C 222.636719 193.433594 222.046875 193.085938 222.046875 192.21875 C 222.046875 191.238281 222.914062 190.609375 225.480469 190.300781 L 225.480469 192.425781 C 224.738281 193.085938 224.132812 193.433594 223.390625 193.433594 Z M 229.175781 194.273438 L 230.449219 194.273438 L 230.449219 188.757812 C 231.21875 187.988281 231.746094 187.597656 232.535156 187.597656 C 233.542969 187.597656 233.976562 188.199219 233.976562 189.625 L 233.976562 194.273438 L 235.246094 194.273438 L 235.246094 189.460938 C 235.246094 187.515625 234.523438 186.480469 232.925781 186.480469 C 231.886719 186.480469 231.105469 187.050781 230.378906 187.765625 L 230.335938 187.765625 L 230.222656 186.671875 L 229.175781 186.671875 Z M 240.679688 194.457031 C 242.542969 194.457031 244.207031 193 244.207031 190.480469 C 244.207031 187.949219 242.542969 186.480469 240.679688 186.480469 C 238.816406 186.480469 237.152344 187.949219 237.152344 190.480469 C 237.152344 193 238.816406 194.457031 240.679688 194.457031 Z M 240.679688 193.394531 C 239.363281 193.394531 238.484375 192.230469 238.484375 190.480469 C 238.484375 188.730469 239.363281 187.542969 240.679688 187.542969 C 241.996094 187.542969 242.890625 188.730469 242.890625 190.480469 C 242.890625 192.230469 241.996094 193.394531 240.679688 193.394531 Z M 246.867188 194.457031 C 247.375 194.457031 247.792969 194.066406 247.792969 193.492188 C 247.792969 192.90625 247.375 192.496094 246.867188 192.496094 C 246.367188 192.496094 245.945312 192.90625 245.945312 193.492188 C 245.945312 194.066406 246.367188 194.457031 246.867188 194.457031 Z M 252.089844 194.457031 C 253.882812 194.457031 254.863281 193.433594 254.863281 192.203125 C 254.863281 190.761719 253.644531 190.3125 252.539062 189.894531 C 251.6875 189.570312 250.898438 189.304688 250.898438 188.578125 C 250.898438 187.988281 251.347656 187.484375 252.316406 187.484375 C 252.988281 187.484375 253.519531 187.765625 254.039062 188.15625 L 254.652344 187.328125 C 254.066406 186.867188 253.238281 186.480469 252.300781 186.480469 C 250.652344 186.480469 249.667969 187.429688 249.667969 188.632812 C 249.667969 189.921875 250.832031 190.441406 251.894531 190.828125 C 252.734375 191.15625 253.632812 191.488281 253.632812 192.273438 C 253.632812 192.933594 253.140625 193.460938 252.132812 193.460938 C 251.226562 193.460938 250.539062 193.097656 249.878906 192.566406 L 249.25 193.40625 C 249.976562 194.007812 251.011719 194.457031 252.089844 194.457031 Z M 256.65625 194.273438 L 257.929688 194.273438 L 257.929688 188.757812 C 258.699219 187.988281 259.230469 187.597656 260.015625 187.597656 C 261.023438 187.597656 261.457031 188.199219 261.457031 189.625 L 261.457031 194.273438 L 262.730469 194.273438 L 262.730469 189.460938 C 262.730469 187.515625 262.003906 186.480469 260.410156 186.480469 C 259.371094 186.480469 258.585938 187.050781 257.886719 187.75 L 257.929688 186.183594 L 257.929688 183.132812 L 256.65625 183.132812 Z M 256.65625 194.273438 "/>
<path fill-rule="nonzero" fill="rgb(12.159729%, 13.729858%, 16.079712%)" fill-opacity="1" d="M 228.066406 162.507812 L 229.003906 162.507812 L 233.191406 148.886719 L 232.269531 148.886719 Z M 236.441406 160.183594 C 237.378906 160.183594 238.230469 159.695312 238.960938 159.09375 L 239 159.09375 L 239.113281 160.003906 L 240.164062 160.003906 L 240.164062 155.328125 C 240.164062 153.449219 239.378906 152.207031 237.53125 152.207031 C 236.3125 152.207031 235.238281 152.75 234.535156 153.199219 L 235.039062 154.078125 C 235.640625 153.675781 236.441406 153.269531 237.324219 153.269531 C 238.566406 153.269531 238.890625 154.207031 238.890625 155.1875 C 235.65625 155.550781 234.214844 156.375 234.214844 158.027344 C 234.214844 159.402344 235.164062 160.183594 236.441406 160.183594 Z M 236.804688 159.164062 C 236.046875 159.164062 235.460938 158.8125 235.460938 157.945312 C 235.460938 156.964844 236.328125 156.335938 238.890625 156.027344 L 238.890625 158.152344 C 238.148438 158.8125 237.542969 159.164062 236.804688 159.164062 Z M 242.585938 163.210938 L 243.863281 163.210938 L 243.863281 160.632812 L 243.832031 159.300781 C 244.519531 159.863281 245.246094 160.183594 245.933594 160.183594 C 247.683594 160.183594 249.234375 158.6875 249.234375 156.082031 C 249.234375 153.746094 248.171875 152.207031 246.214844 152.207031 C 245.332031 152.207031 244.476562 152.710938 243.789062 153.269531 L 243.75 153.269531 L 243.636719 152.402344 L 242.585938 152.402344 Z M 245.722656 159.121094 C 245.21875 159.121094 244.546875 158.914062 243.863281 158.320312 L 243.863281 154.332031 C 244.601562 153.644531 245.257812 153.285156 245.90625 153.285156 C 247.34375 153.285156 247.90625 154.417969 247.90625 156.097656 C 247.90625 157.988281 246.980469 159.121094 245.722656 159.121094 Z M 251.265625 160.003906 L 252.542969 160.003906 L 252.542969 152.402344 L 251.265625 152.402344 Z M 251.910156 150.832031 C 252.414062 150.832031 252.761719 150.496094 252.761719 149.976562 C 252.761719 149.488281 252.414062 149.15625 251.910156 149.15625 C 251.40625 149.15625 251.054688 149.488281 251.054688 149.976562 C 251.054688 150.496094 251.40625 150.832031 251.910156 150.832031 Z M 257.101562 160.183594 C 258.898438 160.183594 259.875 159.164062 259.875 157.933594 C 259.875 156.488281 258.65625 156.042969 257.554688 155.621094 C 256.699219 155.300781 255.914062 155.035156 255.914062 154.304688 C 255.914062 153.71875 256.359375 153.210938 257.328125 153.210938 C 258 153.210938 258.53125 153.492188 259.050781 153.886719 L 259.664062 153.058594 C 259.078125 152.597656 258.25 152.207031 257.3125 152.207031 C 255.664062 152.207031 254.683594 153.15625 254.683594 154.359375 C 254.683594 155.648438 255.84375 156.167969 256.90625 156.558594 C 257.75 156.882812 258.644531 157.21875 258.644531 158 C 258.644531 158.660156 258.15625 159.191406 257.148438 159.191406 C 256.238281 159.191406 255.550781 158.828125 254.890625 158.292969 L 254.261719 159.136719 C 254.988281 159.738281 256.027344 160.183594 257.101562 160.183594 Z M 260.535156 162.507812 L 261.46875 162.507812 L 265.65625 148.886719 L 264.734375 148.886719 Z M 270.503906 160.183594 C 272.253906 160.183594 273.804688 158.6875 273.804688 156.070312 C 273.804688 153.746094 272.742188 152.207031 270.769531 152.207031 C 269.929688 152.207031 269.074219 152.683594 268.386719 153.285156 L 268.429688 151.914062 L 268.429688 148.859375 L 267.15625 148.859375 L 267.15625 160.003906 L 268.179688 160.003906 L 268.292969 159.21875 L 268.347656 159.21875 C 269.003906 159.820312 269.800781 160.183594 270.503906 160.183594 Z M 270.289062 159.121094 C 269.789062 159.121094 269.101562 158.914062 268.429688 158.320312 L 268.429688 154.332031 C 269.160156 153.644531 269.828125 153.285156 270.476562 153.285156 C 271.914062 153.285156 272.476562 154.417969 272.476562 156.097656 C 272.476562 157.988281 271.550781 159.121094 270.289062 159.121094 Z M 277.558594 160.183594 C 278.496094 160.183594 279.347656 159.695312 280.078125 159.09375 L 280.117188 159.09375 L 280.230469 160.003906 L 281.28125 160.003906 L 281.28125 155.328125 C 281.28125 153.449219 280.496094 152.207031 278.648438 152.207031 C 277.433594 152.207031 276.355469 152.75 275.65625 153.199219 L 276.15625 154.078125 C 276.757812 153.675781 277.558594 153.269531 278.441406 153.269531 C 279.683594 153.269531 280.007812 154.207031 280.007812 155.1875 C 276.773438 155.550781 275.332031 156.375 275.332031 158.027344 C 275.332031 159.402344 276.285156 160.183594 277.558594 160.183594 Z M 277.921875 159.164062 C 277.164062 159.164062 276.578125 158.8125 276.578125 157.945312 C 276.578125 156.964844 277.445312 156.335938 280.007812 156.027344 L 280.007812 158.152344 C 279.265625 158.8125 278.664062 159.164062 277.921875 159.164062 Z M 286.097656 160.183594 C 286.558594 160.183594 287.0625 160.042969 287.5 159.902344 L 287.246094 158.953125 C 286.992188 159.050781 286.644531 159.148438 286.378906 159.148438 C 285.496094 159.148438 285.203125 158.617188 285.203125 157.679688 L 285.203125 153.4375 L 287.257812 153.4375 L 287.257812 152.402344 L 285.203125 152.402344 L 285.203125 150.257812 L 284.136719 150.257812 L 283.984375 152.402344 L 282.796875 152.46875 L 282.796875 153.4375 L 283.925781 153.4375 L 283.925781 157.652344 C 283.925781 159.164062 284.472656 160.183594 286.097656 160.183594 Z M 291.976562 160.183594 C 292.890625 160.183594 293.757812 159.835938 294.441406 159.21875 L 293.878906 158.367188 C 293.40625 158.800781 292.789062 159.121094 292.089844 159.121094 C 290.691406 159.121094 289.738281 157.960938 289.738281 156.210938 C 289.738281 154.460938 290.746094 153.269531 292.128906 153.269531 C 292.734375 153.269531 293.195312 153.550781 293.644531 153.941406 L 294.300781 153.101562 C 293.757812 152.625 293.070312 152.207031 292.074219 152.207031 C 290.132812 152.207031 288.410156 153.675781 288.410156 156.210938 C 288.410156 158.726562 289.964844 160.183594 291.976562 160.183594 Z M 296.109375 160.003906 L 297.382812 160.003906 L 297.382812 154.488281 C 298.152344 153.71875 298.683594 153.324219 299.46875 153.324219 C 300.476562 153.324219 300.910156 153.925781 300.910156 155.355469 L 300.910156 160.003906 L 302.183594 160.003906 L 302.183594 155.1875 C 302.183594 153.242188 301.457031 152.207031 299.863281 152.207031 C 298.824219 152.207031 298.039062 152.777344 297.339844 153.476562 L 297.382812 151.914062 L 297.382812 148.859375 L 296.109375 148.859375 Z M 303.472656 162.507812 L 304.410156 162.507812 L 308.59375 148.886719 L 307.671875 148.886719 Z M 311.730469 160.003906 L 313.214844 160.003906 L 315.917969 152.402344 L 314.65625 152.402344 L 313.214844 156.730469 C 312.992188 157.46875 312.753906 158.253906 312.515625 158.96875 L 312.460938 158.96875 C 312.21875 158.253906 311.984375 157.46875 311.746094 156.730469 L 310.316406 152.402344 L 308.988281 152.402344 Z M 317.332031 160.003906 L 322.960938 160.003906 L 322.960938 158.941406 L 320.902344 158.941406 L 320.902344 149.730469 L 319.921875 149.730469 C 319.359375 150.0625 318.703125 150.300781 317.796875 150.46875 L 317.796875 151.28125 L 319.613281 151.28125 L 319.613281 158.941406 L 317.332031 158.941406 Z M 317.332031 160.003906 "/>
<path fill="none" stroke-width="2" stroke-linecap="round" stroke-linejoin="miter" stroke="rgb(73.329163%, 74.899292%, 76.858521%)" stroke-opacity="1" stroke-miterlimit="4" d="M 3.999755 -0.0009005 L 34.710693 -0.0009005 " transform="matrix(1, 0, 0, 1, 189.20337, 153.899338)"/>
<path fill="none" stroke-width="2" stroke-linecap="round" stroke-linejoin="miter" stroke="rgb(73.329163%, 74.899292%, 76.858521%)" stroke-opacity="1" stroke-miterlimit="4" d="M 3.954219 6.738633 L 44.97375 0.594101 " transform="matrix(1, 0, 0, 1, 323.87, 146.566055)"/>
<path fill="none" stroke-width="2" stroke-linecap="round" stroke-linejoin="miter" stroke="rgb(73.329163%, 74.899292%, 76.858521%)" stroke-opacity="1" stroke-miterlimit="4" d="M 2.869934 2.783036 L 54.463684 52.822098 " transform="matrix(1, 0, 0, 1, 56.466003, 166.838058)"/>
<path fill-rule="nonzero" fill="rgb(12.159729%, 13.729858%, 16.079712%)" fill-opacity="1" d="M 115.746094 228.726562 C 116.25 228.726562 116.671875 228.339844 116.671875 227.765625 C 116.671875 227.175781 116.25 226.769531 115.746094 226.769531 C 115.242188 226.769531 114.820312 227.175781 114.820312 227.765625 C 114.820312 228.339844 115.242188 228.726562 115.746094 228.726562 Z M 119.636719 228.726562 C 120.140625 228.726562 120.5625 228.339844 120.5625 227.765625 C 120.5625 227.175781 120.140625 226.769531 119.636719 226.769531 C 119.132812 226.769531 118.714844 227.175781 118.714844 227.765625 C 118.714844 228.339844 119.132812 228.726562 119.636719 228.726562 Z M 123.527344 228.726562 C 124.035156 228.726562 124.453125 228.339844 124.453125 227.765625 C 124.453125 227.175781 124.035156 226.769531 123.527344 226.769531 C 123.027344 226.769531 122.605469 227.175781 122.605469 227.765625 C 122.605469 228.339844 123.027344 228.726562 123.527344 228.726562 Z M 123.527344 228.726562 "/>
<path fill="none" stroke-width="2" stroke-linecap="round" stroke-linejoin="miter" stroke="rgb(73.329163%, 74.899292%, 76.858521%)" stroke-opacity="1" stroke-miterlimit="4" d="M 3.708125 1.502991 L 46.337031 18.768616 " transform="matrix(1, 0, 0, 1, 323.87, 153.899353)"/>
<path fill-rule="nonzero" fill="rgb(12.159729%, 13.729858%, 16.079712%)" fill-opacity="1" d="M 375.859375 180.457031 C 376.363281 180.457031 376.785156 180.066406 376.785156 179.492188 C 376.785156 178.90625 376.363281 178.496094 375.859375 178.496094 C 375.355469 178.496094 374.933594 178.90625 374.933594 179.492188 C 374.933594 180.066406 375.355469 180.457031 375.859375 180.457031 Z M 379.75 180.457031 C 380.253906 180.457031 380.675781 180.066406 380.675781 179.492188 C 380.675781 178.90625 380.253906 178.496094 379.75 178.496094 C 379.246094 178.496094 378.828125 178.90625 378.828125 179.492188 C 378.828125 180.066406 379.246094 180.457031 379.75 180.457031 Z M 383.640625 180.457031 C 384.148438 180.457031 384.566406 180.066406 384.566406 179.492188 C 384.566406 178.90625 384.148438 178.496094 383.640625 178.496094 C 383.140625 178.496094 382.71875 178.90625 382.71875 179.492188 C 382.71875 180.066406 383.140625 180.457031 383.640625 180.457031 Z M 383.640625 180.457031 "/>
<path fill="none" stroke-width="2" stroke-linecap="round" stroke-linejoin="miter" stroke="rgb(73.329163%, 74.899292%, 76.858521%)" stroke-opacity="1" stroke-miterlimit="4" d="M 3.87 1.010833 L 94.772344 24.772552 " transform="matrix(1, 0, 0, 1, 274.38, 91.899323)"/>
<path fill-rule="nonzero" fill="rgb(12.159729%, 13.729858%, 16.079712%)" fill-opacity="1" d="M 375.261719 124.929688 C 375.847656 124.929688 376.332031 124.480469 376.332031 123.820312 C 376.332031 123.140625 375.847656 122.671875 375.261719 122.671875 C 374.683594 122.671875 374.199219 123.140625 374.199219 123.820312 C 374.199219 124.480469 374.683594 124.929688 375.261719 124.929688 Z M 379.75 124.929688 C 380.332031 124.929688 380.816406 124.480469 380.816406 123.820312 C 380.816406 123.140625 380.332031 122.671875 379.75 122.671875 C 379.171875 122.671875 378.6875 123.140625 378.6875 123.820312 C 378.6875 124.480469 379.171875 124.929688 379.75 124.929688 Z M 384.234375 124.929688 C 384.820312 124.929688 385.304688 124.480469 385.304688 123.820312 C 385.304688 123.140625 384.820312 122.671875 384.234375 122.671875 C 383.65625 122.671875 383.171875 123.140625 383.171875 123.820312 C 383.171875 124.480469 383.65625 124.929688 384.234375 124.929688 Z M 384.234375 124.929688 "/>
</svg>
